<svg version="1.1" xmlns="http://www.w3.org/2000/svg" xmlns:xlink="http://www.w3.org/1999/xlink" x="0px" y="0px" width="24px" height="18px" viewBox="0 0 24 18" enable-background="new 0 0 24 18" xml:space="preserve">
<g>
<g>
<defs>
<path id="SVGID_1_" d="M2.992,2C2.444,2,2,2.444,2,3c0,0.552,0.455,1,0.992,1h18.016C21.556,4,22,3.556,22,3
				c0-0.552-0.455-1-0.992-1H2.992z"/>
</defs>
<clipPath id="SVGID_2_">
<use xlink:href="#SVGID_1_" overflow="visible"/>
</clipPath>
<g clip-path="url(#SVGID_2_)">
<defs>
<rect id="SVGID_3_" x="-18" y="-62" width="320" height="1073"/>
</defs>
<clipPath id="SVGID_4_">
<use xlink:href="#SVGID_3_" overflow="visible"/>
</clipPath>
<rect x="-3" y="-3" clip-path="url(#SVGID_4_)" fill-rule="evenodd" clip-rule="evenodd" fill="#333333" width="30" height="12"/>
</g>
</g>
<g>
<defs>
<path id="SVGID_5_" d="M2.992,8C2.444,8,2,8.444,2,9c0,0.552,0.455,1,0.992,1h18.016C21.556,10,22,9.556,22,9
				c0-0.552-0.455-1-0.992-1H2.992z"/>
</defs>
<clipPath id="SVGID_6_">
<use xlink:href="#SVGID_5_" overflow="visible"/>
</clipPath>
<g clip-path="url(#SVGID_6_)">
<defs>
<rect id="SVGID_7_" x="-18" y="-62" width="320" height="1073"/>
</defs>
<clipPath id="SVGID_8_">
<use xlink:href="#SVGID_7_" overflow="visible"/>
</clipPath>
<rect x="-3" y="3" clip-path="url(#SVGID_8_)" fill-rule="evenodd" clip-rule="evenodd" fill="#333333" width="30" height="12"/>
</g>
</g>
<g>
<defs>
<path id="SVGID_9_" d="M2.992,14C2.444,14,2,14.444,2,15c0,0.552,0.455,1,0.992,1h18.016C21.556,16,22,15.556,22,15
				c0-0.552-0.455-1-0.992-1H2.992z"/>
</defs>
<clipPath id="SVGID_10_">
<use xlink:href="#SVGID_9_" overflow="visible"/>
</clipPath>
<g clip-path="url(#SVGID_10_)">
<defs>
<rect id="SVGID_11_" x="-18" y="-62" width="320" height="1073"/>
</defs>
<clipPath id="SVGID_12_">
<use xlink:href="#SVGID_11_" overflow="visible"/>
</clipPath>
<rect x="-3" y="9" clip-path="url(#SVGID_12_)" fill-rule="evenodd" clip-rule="evenodd" fill="#333333" width="30" height="12"/>
</g>
</g>
<g>
<defs>
<path id="SVGID_13_" d="M2.992,2C2.444,2,2,2.444,2,3c0,0.552,0.455,1,0.992,1h18.016C21.556,4,22,3.556,22,3
				c0-0.552-0.455-1-0.992-1H2.992z"/>
</defs>
<clipPath id="SVGID_14_">
<use xlink:href="#SVGID_13_" overflow="visible"/>
</clipPath>
<g clip-path="url(#SVGID_14_)">
<defs>
<rect id="SVGID_15_" x="-18" y="-62" width="320" height="1073"/>
</defs>
<clipPath id="SVGID_16_">
<use xlink:href="#SVGID_15_" overflow="visible"/>
</clipPath>
<rect x="-3" y="-3" clip-path="url(#SVGID_16_)" fill-rule="evenodd" clip-rule="evenodd" fill="#333333" width="30" height="12"/>
</g>
</g>
<g>
<defs>
<path id="SVGID_17_" d="M2.992,8C2.444,8,2,8.444,2,9c0,0.552,0.455,1,0.992,1h18.016C21.556,10,22,9.556,22,9
				c0-0.552-0.455-1-0.992-1H2.992z"/>
</defs>
<clipPath id="SVGID_18_">
<use xlink:href="#SVGID_17_" overflow="visible"/>
</clipPath>
<g clip-path="url(#SVGID_18_)">
<defs>
<rect id="SVGID_19_" x="-18" y="-62" width="320" height="1073"/>
</defs>
<clipPath id="SVGID_20_">
<use xlink:href="#SVGID_19_" overflow="visible"/>
</clipPath>
<rect x="-3" y="3" clip-path="url(#SVGID_20_)" fill-rule="evenodd" clip-rule="evenodd" fill="#333333" width="30" height="12"/>
</g>
</g>
<g>
<defs>
<path id="SVGID_21_" d="M2.992,14C2.444,14,2,14.444,2,15c0,0.552,0.455,1,0.992,1h18.016C21.556,16,22,15.556,22,15
				c0-0.552-0.455-1-0.992-1H2.992z"/>
</defs>
<clipPath id="SVGID_22_">
<use xlink:href="#SVGID_21_" overflow="visible"/>
</clipPath>
<g clip-path="url(#SVGID_22_)">
<defs>
<rect id="SVGID_23_" x="-18" y="-62" width="320" height="1073"/>
</defs>
<clipPath id="SVGID_24_">
<use xlink:href="#SVGID_23_" overflow="visible"/>
</clipPath>
<rect x="-3" y="9" clip-path="url(#SVGID_24_)" fill-rule="evenodd" clip-rule="evenodd" fill="#333333" width="30" height="12"/>
</g>
</g>
</g>
</svg>